<svg fill="#1f69e0" height="200px" width="200px" version="1.1" id="Layer_1" xmlns="http://www.w3.org/2000/svg" xmlns:xlink="http://www.w3.org/1999/xlink" viewBox="0 0 512 512" xml:space="preserve" stroke="#1f69e0"><g id="SVGRepo_bgCarrier" stroke-width="0"></g><g id="SVGRepo_tracerCarrier" stroke-linecap="round" stroke-linejoin="round"></g><g id="SVGRepo_iconCarrier"> <g> <g> <path d="M174.829,174.829c-24.1,0-43.707,19.607-43.707,43.707c0,24.1,19.607,43.707,43.707,43.707s43.707-19.607,43.707-43.707 C218.537,194.436,198.93,174.829,174.829,174.829z"></path> </g> </g> <g> <g> <path d="M512,405.854V31.219H0v374.634h187.317v37.463H143.61v37.463H368.39v-37.463h-43.707v-37.463H512z M305.951,268.488 v-31.219h-52.158c-8.482,35.753-40.655,62.439-78.964,62.439c-44.758,0-81.171-36.413-81.171-81.171 c0-44.758,36.413-81.171,81.171-81.171c38.31,0,70.482,26.685,78.964,62.439h158.304v37.463h-18.732v43.707h-37.463v-43.707 h-12.488v31.219H305.951z"></path> </g> </g> </g></svg>