<svg xmlns="http://www.w3.org/2000/svg" width="171.592" height="229.071" viewBox="0 0 171.592 229.071">
  <g id="avatar-svgrepo-com" transform="translate(-35.973 64.492)">
    <g id="Groupe_170" data-name="Groupe 170" transform="translate(35.973 -64.492)">
      <path id="Tracé_321" data-name="Tracé 321" d="M179.95,108.7h1.337c12.24-.209,22.141-4.512,29.451-12.741,16.083-18.13,13.41-49.211,13.117-52.177-1.044-22.266-11.572-32.918-20.261-37.89A46.446,46.446,0,0,0,181.12,0h-.71a46.519,46.519,0,0,0-22.475,5.723c-8.773,4.971-19.467,15.624-20.511,38.057-.292,2.966-2.966,34.046,13.117,52.177C157.81,104.186,167.71,108.489,179.95,108.7Z" transform="translate(-94.844 26.942)" fill="#a4533b"/>
      <path id="Tracé_322" data-name="Tracé 322" d="M207.653,311.193v-.125c0-.334-.042-.668-.042-1.044-.251-8.271-.794-27.613-18.924-33.8-.125-.042-.292-.084-.418-.125-18.84-4.8-34.506-15.666-34.673-15.791a5.633,5.633,0,0,0-7.854,1.379c-1.8,2.548-45.952,2.506-47.749-.042a5.633,5.633,0,0,0-7.854-1.379c-.167.125-15.749,10.987-34.673,15.791-.167.042-.292.084-.418.125-18.13,6.224-18.673,25.566-18.924,33.8a8.39,8.39,0,0,1-.042,1.044v.125c-.042,2.172-.084,13.326,2.131,18.924a5.36,5.36,0,0,0,2.172,2.632c1.253.836,31.289,19.968,81.544,19.968s80.291-19.175,81.544-19.968a5.59,5.59,0,0,0,2.172-2.632C207.737,324.52,207.695,313.366,207.653,311.193Z" transform="translate(-36.073 -123.605)" fill="#7d006c"/>
      <path id="Tracé_323" data-name="Tracé 323" d="M170.656-5.986c9.556-9.166,30.813,0,30.813,0s3.874,4.675,2.981,24.321c-.609,13.4-8.654,37.005-8.654,37.005s10.755,4.514,16.636-5.569c3.315-5.682,2.146-23.033,3.788-31.436,4.5-23.022,4.35-35.3-8.042-56,0,0-17.962-26.823-41.528-26.823S121.5-51.968,113.916-37.669s-9.117,35.192-5.273,56c1.618,8.762.987,24.795,5.273,31.436,5.775,8.947,16.565,7.04,16.565,7.04s-7.9-18.83-8.31-38.476S161.1,3.18,170.656-5.986Z" transform="translate(-77.103 64.492)" fill="#2e2e2e"/>
    </g>
  </g>
</svg>
